<svg width="76" height="18" viewBox="0 0 76 18" fill="none" xmlns="http://www.w3.org/2000/svg">
<path d="M72.4989 18V14.64H75.6669V18H72.4989Z" fill="#FFF"/>
<path d="M57.0014 18V0.119995H68.8814V3H60.2654V7.584H68.4014V10.464H60.2654V15.12H68.8814V18H57.0014Z" fill="#FFF"/>
<path d="M39.2358 18V0.119995H45.0678C46.9558 0.119995 48.5958 0.503995 49.9878 1.272C51.3958 2.024 52.4838 3.072 53.2518 4.416C54.0198 5.744 54.4038 7.288 54.4038 9.048C54.4038 10.792 54.0198 12.344 53.2518 13.704C52.4838 15.048 51.3958 16.104 49.9878 16.872C48.5958 17.624 46.9558 18 45.0678 18H39.2358ZM42.4998 15.12H45.1398C46.3558 15.12 47.4038 14.872 48.2838 14.376C49.1798 13.864 49.8758 13.16 50.3718 12.264C50.8678 11.352 51.1158 10.28 51.1158 9.048C51.1158 7.8 50.8678 6.728 50.3718 5.832C49.8758 4.936 49.1798 4.24 48.2838 3.744C47.4038 3.248 46.3558 3 45.1398 3H42.4998V15.12Z" fill="#FFF"/>
<path d="M20.6859 18L26.8539 0.119995H31.0779L37.2459 18H33.6939L32.4219 14.16H25.5099L24.2139 18H20.6859ZM26.4459 11.28H31.4859L28.5099 2.376H29.4219L26.4459 11.28Z" fill="#FFF"/>
<path d="M0.727997 18V0.119995H3.848L10.544 9.216H9.056L15.608 0.119995H18.728V18H15.44V3.84L16.712 4.152L9.92 13.2H9.536L2.912 4.152L3.992 3.84V18H0.727997Z" fill="#FFF"/>
</svg>
